<svg viewBox="0 0 58 28" fill="none" xmlns="http://www.w3.org/2000/svg">
    <path d="M42.0614 4C40.4149 -0.474007 36.0265 2.07128 25.435 2.07127C7.85465 2.07127 0.5 -3.92382 0.5 12.4504C16.416 12.4504 3.15256 26.778 22.2518 26.778C67.7813 26.778 49.924 29.0585 44.3614 19M43.153 15.6814C43.0172 14.9775 42.9427 14.2308 42.9427 13.4387C42.9427 10.758 42.8716 8.65036 42.6875 7"
          stroke="url(#paint0_linear_95_4)"/>
    <path d="M13.3334 10.5608C12.7609 10.5908 12.4734 10.9158 12.471 11.5358L12.4693 11.9958L14.0072 11.9152L14.0041 12.7052L12.4862 12.7848L12.469 17.2947L11.5103 17.345L11.5275 12.835L10.6288 12.8821L10.6318 12.0921L11.5306 12.045L11.5324 11.575C11.5344 11.0484 11.6891 10.6237 11.9965 10.301C12.3039 9.97824 12.7339 9.8024 13.2865 9.77344C13.4995 9.76228 13.6992 9.77848 13.8854 9.82204C14.0716 9.8656 14.2311 9.9339 14.3638 10.0269L14.0714 10.7721C13.8524 10.6169 13.6064 10.5465 13.3334 10.5608ZM17.0797 17.1131C16.5537 17.1406 16.0815 17.0488 15.663 16.8374C15.2444 16.6261 14.9161 16.3233 14.678 15.9292C14.4466 15.5281 14.3318 15.0675 14.3338 14.5476C14.3358 14.0276 14.4541 13.5581 14.6887 13.1392C14.9299 12.7134 15.2607 12.3761 15.681 12.1274C16.1013 11.8721 16.5744 11.7307 17.1004 11.7031C17.6263 11.6756 18.0952 11.7676 18.5071 11.9793C18.9257 12.184 19.2507 12.4869 19.4821 12.888C19.7202 13.2821 19.8383 13.7392 19.8363 14.2592C19.8343 14.7792 19.7127 15.2521 19.4714 15.678C19.2368 16.0969 18.9094 16.434 18.4891 16.6893C18.0754 16.9443 17.6056 17.0855 17.0797 17.1131ZM17.0829 16.2731C17.4224 16.2553 17.7256 16.1628 17.9925 15.9955C18.2661 15.8212 18.48 15.59 18.6342 15.302C18.7884 15.0073 18.8662 14.6766 18.8676 14.3099C18.869 13.9433 18.7937 13.624 18.6416 13.352C18.4896 13.0734 18.2774 12.8645 18.005 12.7255C17.7393 12.5861 17.4367 12.5253 17.0972 12.5431C16.7576 12.5609 16.4511 12.6536 16.1775 12.8213C15.9107 12.9886 15.6968 13.2197 15.5359 13.5148C15.3817 13.8028 15.3039 14.1301 15.3025 14.4968C15.3011 14.8634 15.3764 15.1861 15.5284 15.4647C15.6871 15.7364 15.8993 15.9452 16.165 16.0912C16.4374 16.2303 16.7434 16.2909 17.0829 16.2731ZM22.0876 12.3816C22.2552 12.0662 22.5024 11.8199 22.8292 11.6428C23.1561 11.4657 23.5525 11.365 24.0185 11.3406L24.015 12.2706C23.9617 12.2667 23.8885 12.2672 23.7953 12.2721C23.276 12.2993 22.866 12.4774 22.5652 12.8064C22.2711 13.1285 22.123 13.5761 22.1208 14.1495L22.1107 16.7894L21.152 16.8397L21.1723 11.5397L22.091 11.4916L22.0876 12.3816ZM31.821 10.9316C32.4868 10.8968 33.012 11.0625 33.3966 11.429C33.788 11.795 33.9822 12.3581 33.9793 13.1181L33.9676 16.168L33.0089 16.2183L33.0202 13.2783C33.0221 12.765 32.9038 12.3846 32.6651 12.1372C32.4331 11.8894 32.0974 11.777 31.658 11.8C31.172 11.8255 30.7852 11.9991 30.4978 12.3207C30.2104 12.6357 30.0656 13.0766 30.0634 13.6432L30.053 16.3732L29.0943 16.4234L29.1055 13.4835C29.1075 12.9701 28.9891 12.5897 28.7505 12.3423C28.5184 12.0945 28.1827 11.9821 27.7433 12.0052C27.2573 12.0306 26.8706 12.2042 26.5832 12.5259C26.2957 12.8409 26.1509 13.2817 26.1488 13.8484L26.1383 16.5784L25.1796 16.6286L25.1999 11.3286L26.1187 11.2805L26.1156 12.0705C26.3098 11.787 26.5635 11.5671 26.877 11.4107C27.1904 11.2476 27.5469 11.1556 27.9464 11.1347C28.3591 11.1131 28.725 11.1772 29.0439 11.3271C29.3628 11.4771 29.6082 11.7075 29.7801 12.0184C29.981 11.7013 30.2582 11.4468 30.6117 11.255C30.9719 11.0628 31.375 10.955 31.821 10.9316ZM40.6851 10.5171L40.6648 15.8171L39.7561 15.8647L39.7591 15.0647C39.565 15.3481 39.3079 15.5749 38.9877 15.745C38.6743 15.908 38.3311 15.9993 37.9583 16.0189C37.2526 16.0559 36.6974 15.8917 36.2928 15.5263C35.8882 15.1542 35.6873 14.5882 35.6903 13.8282L35.7019 10.7782L36.6606 10.728L36.6494 13.668C36.6474 14.1813 36.7691 14.5649 37.0144 14.8186C37.2597 15.0657 37.6121 15.1772 38.0714 15.1531C38.5774 15.1266 38.9774 14.9523 39.2715 14.6303C39.5656 14.3083 39.7138 13.8673 39.7159 13.3073L39.7264 10.5673L40.6851 10.5171ZM47.1196 10.1299C47.8519 10.0915 48.4104 10.2422 48.7952 10.582C49.1866 10.9214 49.381 11.4477 49.3782 12.1611L49.366 15.361L48.4572 15.4087L48.4599 14.7087C48.2992 14.9637 48.0688 15.1657 47.7687 15.3148C47.4753 15.4568 47.1255 15.5385 46.7194 15.5597C46.1269 15.5908 45.6514 15.4724 45.293 15.2046C44.9412 14.9364 44.7663 14.569 44.768 14.1023C44.7698 13.6357 44.941 13.2534 45.2816 12.9556C45.6223 12.6512 46.1621 12.4796 46.9011 12.4409L48.419 12.3613L48.4197 12.1713C48.4213 11.758 48.3027 11.4476 48.0638 11.2402C47.825 11.0327 47.4726 10.9412 47.0065 10.9656C46.6936 10.982 46.3872 11.0514 46.0872 11.1738C45.7872 11.2895 45.5337 11.4394 45.3267 11.6236L44.93 10.9245C45.2038 10.6902 45.5306 10.5064 45.9105 10.3732C46.2905 10.2333 46.6935 10.1522 47.1196 10.1299ZM46.882 14.8114C47.2482 14.7922 47.5647 14.6956 47.8316 14.5216C48.0986 14.341 48.2925 14.0976 48.4135 13.7913L48.4163 13.0513L46.9384 13.1288C46.1261 13.1713 45.719 13.4659 45.7169 14.0126C45.7159 14.2793 45.8183 14.4839 46.0241 14.6264C46.2299 14.7689 46.5158 14.8306 46.882 14.8114ZM55.9628 12.3959C55.9626 12.4692 55.9555 12.5662 55.9418 12.6869L51.6476 12.912C51.7058 13.3755 51.9074 13.7415 52.2525 14.01C52.6043 14.2715 53.0398 14.3887 53.5591 14.3615C54.1915 14.3283 54.7017 14.0883 55.0894 13.6414L55.6163 14.2336C55.3756 14.5262 55.0752 14.7552 54.7151 14.9207C54.3617 15.0859 53.9653 15.18 53.5259 15.203C52.9667 15.2323 52.4711 15.145 52.0393 14.941C51.6074 14.7303 51.2724 14.4246 51.0343 14.0239C50.8029 13.6227 50.6882 13.1622 50.6902 12.6422C50.6921 12.1289 50.8071 11.6596 51.035 11.2344C51.2696 10.8089 51.5871 10.4723 51.9874 10.2247C52.3944 9.97008 52.8509 9.82952 53.3569 9.803C53.8628 9.77648 54.3118 9.8696 54.7037 10.0823C55.1023 10.2881 55.4106 10.5918 55.6287 10.9937C55.8535 11.3951 55.9649 11.8625 55.9628 12.3959ZM53.3538 10.613C52.8944 10.6371 52.5077 10.7973 52.1938 11.0937C51.8864 11.3898 51.7053 11.7658 51.6503 12.222L55.0456 12.044C54.9941 11.6001 54.8124 11.2464 54.5006 10.9828C54.1954 10.7122 53.8131 10.5889 53.3538 10.613Z"
          fill="url(#paint1_linear_95_4)"/>
    <defs>
        <linearGradient id="paint0_linear_95_4" x1="-7.1729" y1="21.7656" x2="14.8467" y2="-20.6123"
                        gradientUnits="userSpaceOnUse">
            <stop stop-color="#1971C2"/>
            <stop offset="1" stop-color="#4C6EF5"/>
        </linearGradient>
        <linearGradient id="paint1_linear_95_4" x1="3.68504" y1="17.3393" x2="8.88647" y2="-6.38047"
                        gradientUnits="userSpaceOnUse">
            <stop stop-color="#1971C2"/>
            <stop offset="1" stop-color="#4C6EF5"/>
        </linearGradient>
    </defs>
</svg>
