<svg viewBox="0 0 17 17" fill="none" xmlns="http://www.w3.org/2000/svg">
    <g clip-path="url(#clip0_68_35)">
        <mask id="mask0_68_35" style="mask-type:alpha" maskUnits="userSpaceOnUse" x="0" y="2"
              width="17" height="13">
            <path d="M13.2566 8.04408C13.2585 9.99289 13.8924 11.3722 14.5843 12.3396C14.9289 12.8215 15.2862 13.1989 15.5811 13.4908C15.6595 13.5684 15.7437 13.6497 15.8189 13.7225C15.8745 13.7762 15.9253 13.8253 15.9653 13.8647C16.0269 13.9254 16.0763 13.9759 16.1148 14.0183C15.9112 14.0478 15.5503 14.0573 14.96 14.0515C14.5604 14.0476 14.0648 14.0371 13.4594 14.0243C12.0292 13.994 9.98644 13.9507 7.15057 13.9507C5.73211 13.9507 4.96629 13.5538 4.50697 13.0068C4.03311 12.4425 3.84683 11.678 3.68181 10.8459C3.66671 10.7698 3.65178 10.6929 3.63675 10.6155C3.49316 9.87625 3.34098 9.09272 2.95142 8.48623C2.73038 8.14212 2.43194 7.85073 2.01816 7.64768C1.66219 7.47299 1.23104 7.36865 0.706985 7.34376C0.717205 5.59709 0.857981 4.46316 1.12496 3.73776C1.26292 3.36293 1.43043 3.10919 1.62058 2.93612C1.8091 2.76455 2.03373 2.65959 2.30778 2.60373C2.876 2.4879 3.61623 2.58714 4.60406 2.73072C4.62888 2.73433 4.65383 2.73796 4.67892 2.74161C5.63507 2.88073 6.7819 3.04758 8.11864 3.04758C9.16554 3.04758 10.02 2.92804 10.7015 2.8327C10.7765 2.8222 10.8495 2.812 10.9203 2.80228C11.2807 2.75286 11.5782 2.71733 11.8311 2.71494C12.0832 2.71256 12.27 2.7438 12.4157 2.81277C12.6867 2.94107 12.9119 3.25003 13.0576 4.07909C13.202 4.90099 13.2547 6.15308 13.2566 8.04408Z"
                  fill="#228BE6" stroke="#228BE6" stroke-width="0.5"/>
        </mask>
        <g mask="url(#mask0_68_35)">
            <path d="M13.2566 8.04408C13.2585 9.99289 13.8924 11.3722 14.5843 12.3396C14.9289 12.8215 15.2862 13.1989 15.5811 13.4908C15.6595 13.5684 15.7437 13.6497 15.8189 13.7225C15.8745 13.7762 15.9253 13.8253 15.9653 13.8647C16.0269 13.9254 16.0763 13.9759 16.1148 14.0183C15.9112 14.0478 15.5503 14.0573 14.96 14.0515C14.5604 14.0476 14.0648 14.0371 13.4594 14.0243C12.0292 13.994 9.98644 13.9507 7.15057 13.9507C5.73211 13.9507 4.96629 13.5538 4.50697 13.0068C4.03311 12.4425 3.84683 11.678 3.68181 10.8459C3.66671 10.7698 3.65178 10.6929 3.63675 10.6155C3.49316 9.87625 3.34098 9.09272 2.95142 8.48623C2.73038 8.14212 2.43194 7.85073 2.01816 7.64768C1.66219 7.47299 1.23104 7.36865 0.706985 7.34376C0.717205 5.59709 0.857981 4.46316 1.12496 3.73776C1.26292 3.36293 1.43043 3.10919 1.62058 2.93612C1.8091 2.76455 2.03373 2.65959 2.30778 2.60373C2.876 2.4879 3.61623 2.58714 4.60406 2.73072C4.62888 2.73433 4.65383 2.73796 4.67892 2.74161C5.63507 2.88073 6.7819 3.04758 8.11864 3.04758C9.16554 3.04758 10.02 2.92804 10.7015 2.8327C10.7765 2.8222 10.8495 2.812 10.9203 2.80228C11.2807 2.75286 11.5782 2.71733 11.8311 2.71494C12.0832 2.71256 12.27 2.7438 12.4157 2.81277C12.6867 2.94107 12.9119 3.25003 13.0576 4.07909C13.202 4.90099 13.2547 6.15308 13.2566 8.04408Z"
                  fill="#3DA0F5" stroke="#228BE6" stroke-width="0.5"/>
            <path d="M8.36728 6.09788C7.89369 6.22667 7.55705 6.45579 7.35735 6.78524C7.16794 7.1119 7.11968 7.53224 7.21257 8.04628L7.38886 9.0219L9.89063 8.34157L10.0612 9.28571L7.59035 9.95764L8.91536 17.2905L7.81891 17.5887L6.49389 10.2558L5.04224 10.6506L4.87164 9.70642L6.32329 9.31166L6.13847 8.28884C6.00199 7.53352 6.10499 6.87817 6.44749 6.32278C6.80028 5.76459 7.3679 5.37911 8.15035 5.16633C8.45921 5.08234 8.7663 5.04836 9.07163 5.06438C9.37507 5.06991 9.63976 5.13001 9.8657 5.24466L9.64576 6.17944C9.27732 5.99348 8.85116 5.96629 8.36728 6.09788Z"
                  fill="white"/>
            <path d="M12.4951 5.99735L11.694 5.30721L11.2017 6.34906L10.8929 6.43305L11.504 5.15251L10.5576 4.3533L10.8664 4.26931L11.6229 4.91382L12.0864 3.93754L12.3876 3.85565L11.8051 5.07062L12.8078 5.91231L12.4951 5.99735Z"
                  fill="white"/>
        </g>
    </g>
    <defs>
        <clipPath id="clip0_68_35">
            <rect width="16" height="16" fill="white" transform="translate(0.451233 0.303146)"/>
        </clipPath>
    </defs>
</svg>
