<svg viewBox="0 0 17 17" fill="none" xmlns="http://www.w3.org/2000/svg">
    <g clip-path="url(#clip0_100_8)">
        <path d="M8.33397 2.08872C7.47837 2.16358 6.82748 2.45373 6.38132 2.95918C5.95376 3.463 5.74021 4.17197 5.74068 5.0861L5.74158 6.82108L10.2614 6.42565L10.2623 8.10466L5.79825 8.49521L5.80498 21.5355L3.82406 21.7088L3.81733 8.66852L1.19471 8.89797L1.19385 7.21896L3.81647 6.98951L3.81553 5.17058C3.81483 3.82737 4.19559 2.73063 4.95779 1.88037C5.73859 1.02849 6.8358 0.540707 8.24941 0.417032C8.80741 0.368213 9.34686 0.404972 9.86775 0.527308C10.3886 0.63099 10.8258 0.816616 11.1794 1.08419L10.5106 2.6259C9.93371 2.1913 9.20818 2.01224 8.33397 2.08872Z"
              fill="url(#paint0_linear_100_8)"/>
        <path d="M10.2575 16.056C10.0371 15.7058 9.86907 15.2975 9.75332 14.8312C9.6376 14.361 9.58199 13.852 9.58648 13.3043C9.59098 12.7567 9.65503 12.2383 9.77863 11.7492C9.90226 11.256 10.0772 10.8208 10.3035 10.4434L10.7104 10.4114C10.4717 10.8337 10.2947 11.2811 10.1792 11.7536C10.0677 12.2258 10.0097 12.7317 10.0053 13.2714C10.0009 13.811 10.0506 14.3085 10.1545 14.7637C10.2623 15.2186 10.4323 15.6387 10.6643 16.0239L10.2575 16.056ZM13.5164 14.637L12.528 13.3964L11.5121 14.7947L11.0334 14.8324L12.2912 13.1154L11.1192 11.6736L11.5978 11.6359L12.533 12.7968L13.4884 11.4871L13.9551 11.4504L12.7579 13.0787L14.001 14.5988L13.5164 14.637ZM14.3455 15.7342C14.5841 15.312 14.7612 14.8666 14.8767 14.3981C14.9921 13.9256 15.0521 13.4175 15.0566 12.8738C15.061 12.3302 15.0093 11.8329 14.9014 11.3819C14.7935 10.927 14.6236 10.5069 14.3916 10.1217L14.7984 10.0897C15.0188 10.4319 15.1869 10.8401 15.3026 11.3144C15.4223 11.7844 15.4799 12.2932 15.4754 12.8409C15.4709 13.3885 15.4068 13.9069 15.2833 14.396C15.1597 14.8851 14.9827 15.3205 14.7523 15.7022L14.3455 15.7342Z"
              fill="url(#paint1_linear_100_8)"/>
    </g>
    <defs>
        <linearGradient id="paint0_linear_100_8" x1="-0.74308" y1="22.2633" x2="18.0308"
                        y2="16.8217" gradientUnits="userSpaceOnUse">
            <stop stop-color="#1971C2"/>
            <stop offset="1" stop-color="#4C6EF5"/>
        </linearGradient>
        <linearGradient id="paint1_linear_100_8" x1="7.77703" y1="14.6799" x2="14.9563" y2="6.12202"
                        gradientUnits="userSpaceOnUse">
            <stop stop-color="#1971C2"/>
            <stop offset="1" stop-color="#4C6EF5"/>
        </linearGradient>
        <clipPath id="clip0_100_8">
            <rect width="16" height="16" fill="white" transform="translate(0.451233 0.303146)"/>
        </clipPath>
    </defs>
</svg>
